<svg id="a784c6c3-45ff-4d13-b213-c61b98c04d5a" data-name="Layer 1" xmlns="http://www.w3.org/2000/svg" width="12.2002" height="12.6499" viewBox="0 0 12.2002 12.6499">
  <path d="M10.93359,3.21387H4.3833L7.78369,4.41406l.29981.3999v7.8003h2.85009v-.7002l.89942-.95019v2.09961l-.4502.45019H8.0835v.9502l-.6001.45019L2.78369,13.31348l-.30029-.44922V2.76416l.45019-.5h8.44922l.4502.5v2.1001l-.89942-.9502V3.21387ZM7.1333,5.16406l-3.75-1.25v8.64942l3.75,1.25Zm4.44971.75-.64942-.6499L8.5835,7.61426v.6499l2.29931,2.29932.7002-.64942-1.5-1.5h4.60058V7.46387H10.0332Z" transform="translate(-2.4834 -2.26416)" fill="#f74646"/>
</svg>
