<svg id="a0db27ea-1fc2-43e6-9795-1e0c957f4149" data-name="Layer 1" xmlns="http://www.w3.org/2000/svg" width="12.19971" height="12.64941" viewBox="0 0 12.19971 12.64941">
  <path d="M11.34961,2.79736H4.7998l3.4004,1.2002.2998.3999v7.79981h2.84961V9.99707l.90039.9502v1.70019l-.4502.4502H8.5v.94922l-.6001.45019L3.2002,12.89746l-.3003-.45019V2.34766l.4502-.5h8.4497l.4502.5v1.6997l-.90039.9502V2.79736ZM7.5498,4.74756l-3.75-1.25v8.6499l3.75,1.25Zm4.59961,4.74951.65039.65039,2.29981-2.2998v-.7002L12.7998,4.84766l-.65039.6499,1.5,1.5H9v.95019h4.7002Z" transform="translate(-2.8999 -1.84766)" fill="#f74646"/>
</svg>
